<svg xmlns="http://www.w3.org/2000/svg" width="940" height="430" font-family="Segoe UI, Roboto, Arial, sans-serif"><rect width="100%" height="100%" fill="white"/><text x="10" y="390" font-size="13" fill="#555">Synthetic fixture: out-and-back (preview zoom)</text><g transform="translate(0,0)"><clipPath id="clip0"><rect width="460" height="360"/></clipPath><rect x="0.5" y="0.5" width="459" height="359" fill="#f7f7f2" stroke="#bdbdbd"/><g clip-path="url(#clip0)"><path d="M230.0,324.0 L230.0,56.0 L230.0,324.0" fill="none" stroke="#2e7d32" stroke-width="7" stroke-linecap="round" stroke-linejoin="round"/><circle cx="230.0" cy="324.0" r="8" fill="white" stroke="#212121" stroke-width="3"/><text x="242.0" y="328.0" font-size="12" fill="#212121">Start / Finish</text></g><text x="14" y="26" font-size="15" font-weight="600" fill="#212121">Before: today's map</text></g><g transform="translate(480,0)"><clipPath id="clip480"><rect width="460" height="360"/></clipPath><rect x="0.5" y="0.5" width="459" height="359" fill="#f7f7f2" stroke="#bdbdbd"/><g clip-path="url(#clip480)"><path d="M230.0,324.0 L230.0,56.0" fill="none" stroke="#2e7d32" stroke-width="7" stroke-linecap="round" stroke-linejoin="round"/><polyline points="235.0,305.0 230.0,295.0 225.0,305.0" fill="none" stroke="white" stroke-width="2.2" stroke-linecap="round" stroke-linejoin="round"/><polyline points="235.0,259.0 230.0,249.0 225.0,259.0" fill="none" stroke="white" stroke-width="2.2" stroke-linecap="round" stroke-linejoin="round"/><polyline points="235.0,213.0 230.0,203.0 225.0,213.0" fill="none" stroke="white" stroke-width="2.2" stroke-linecap="round" stroke-linejoin="round"/><polyline points="235.0,167.0 230.0,157.0 225.0,167.0" fill="none" stroke="white" stroke-width="2.2" stroke-linecap="round" stroke-linejoin="round"/><polyline points="235.0,121.0 230.0,111.0 225.0,121.0" fill="none" stroke="white" stroke-width="2.2" stroke-linecap="round" stroke-linejoin="round"/><polyline points="235.0,75.0 230.0,65.0 225.0,75.0" fill="none" stroke="white" stroke-width="2.2" stroke-linecap="round" stroke-linejoin="round"/><path d="M223.0,56.0 L223.0,324.0" fill="none" stroke="#1565c0" stroke-width="6" stroke-dasharray="10 6" stroke-linecap="round" stroke-linejoin="round"/><polyline points="218.0,75.0 223.0,85.0 228.0,75.0" fill="none" stroke="white" stroke-width="2.2" stroke-linecap="round" stroke-linejoin="round"/><polyline points="218.0,121.0 223.0,131.0 228.0,121.0" fill="none" stroke="white" stroke-width="2.2" stroke-linecap="round" stroke-linejoin="round"/><polyline points="218.0,167.0 223.0,177.0 228.0,167.0" fill="none" stroke="white" stroke-width="2.2" stroke-linecap="round" stroke-linejoin="round"/><polyline points="218.0,213.0 223.0,223.0 228.0,213.0" fill="none" stroke="white" stroke-width="2.2" stroke-linecap="round" stroke-linejoin="round"/><polyline points="218.0,259.0 223.0,269.0 228.0,259.0" fill="none" stroke="white" stroke-width="2.2" stroke-linecap="round" stroke-linejoin="round"/><polyline points="218.0,305.0 223.0,315.0 228.0,305.0" fill="none" stroke="white" stroke-width="2.2" stroke-linecap="round" stroke-linejoin="round"/><rect x="220.0" y="46.0" width="20" height="20" rx="4" fill="white" stroke="#212121" stroke-width="2.5"/><path d="M234.0,61.0 L234.0,54.0 A4,4 0 0 0 226.0,54.0 L226.0,61.0" fill="none" stroke="#212121" stroke-width="2"/><path d="M223.0,58.0 L226.0,62.0 L229.0,58.0" fill="none" stroke="#212121" stroke-width="2"/><text x="244.0" y="44.0" font-size="12" font-weight="600" fill="#212121" text-anchor="start">Turn around</text><circle cx="230.0" cy="230.2" r="9" fill="white" stroke="#212121" stroke-width="1.5"/><text x="230.0" y="234.2" font-size="11" text-anchor="middle" fill="#212121">1</text><circle cx="230.0" cy="149.8" r="9" fill="white" stroke="#212121" stroke-width="1.5"/><text x="230.0" y="153.8" font-size="11" text-anchor="middle" fill="#212121">2</text><circle cx="230.0" cy="324.0" r="8" fill="white" stroke="#212121" stroke-width="3"/><text x="242.0" y="328.0" font-size="12" fill="#212121">Start / Finish</text></g><text x="14" y="26" font-size="15" font-weight="600" fill="#212121">After: proposed cues</text></g><g transform="translate(14,414)" font-size="12" fill="#212121"><line x1="0" y1="0" x2="28" y2="0" stroke="#2e7d32" stroke-width="7"/><text x="36" y="4">First pass (chevrons show direction)</text><line x1="270" y1="0" x2="298" y2="0" stroke="#1565c0" stroke-width="6" stroke-dasharray="10 6"/><text x="306" y="4">Second pass, offset and dashed</text><rect x="560" y="-9" width="18" height="18" rx="4" fill="white" stroke="#212121" stroke-width="2.5"/><text x="586" y="4">Turn-around marker</text><circle cx="760" cy="0" r="9" fill="white" stroke="#212121" stroke-width="1.5"/><text x="760" y="4" font-size="11" text-anchor="middle">1</text><text x="776" y="4">Leg order</text></g></svg>